# xmcd
# 
# Track frame offsets:
#     150
#     44627
#     70247
#     93497
#     121670
#     142170
#     157790
#     189342
#     217210
#     230540
#     248305
#     275637
#     294507
#     308362
#     330002
# 
# Disc length: 4625
# 
# Revision: 4
# Processed by: cddbd v1.5.2PL0 Copyright (c) Steve Scherf et al.
# Submitted via: fre:ac v1.0.17
# 
DISCID=ce120f0f
DTITLE=Char - Singles 1976-2005 3
DYEAR=2006
DGENRE=J-Rock
TTITLE0=1. ENDLESS DREAM (Live) 
TTITLE1=2. ICE CREAM (Live) 
TTITLE2=3. YOU GOT THE MUSIC (Live) 
TTITLE3=4. THRILL (Live) 
TTITLE4=5. A Fair Wind (Live version) 
TTITLE5=6. 気絶するほど悩ましい (エレキ弾き語り 2006 Live
TTITLE6=7. OSAMPO (2006 Live) 
TTITLE7=8. The Leading of The Leaving (loneliness) 
TTITLE8=9. 11 years 
TTITLE9=10. R-1 (Route-One) 
TTITLE10=11. Second Hand Jam 
TTITLE11=12. A Fair Wind 
TTITLE12=13. Sacred Hills 
TTITLE13=14. 45 Over Drive 
TTITLE14=15. Moonlight Serenade 
EXTD=YEAR: 2006
EXTT0=
EXTT1=
EXTT2=
EXTT3=
EXTT4=
EXTT5=
EXTT6=
EXTT7=
EXTT8=
EXTT9=
EXTT10=
EXTT11=
EXTT12=
EXTT13=
EXTT14=
PLAYORDER=
